<?xml version="1.0" encoding="utf-8"?>
<!-- Generator: Adobe Illustrator 16.0.0, SVG Export Plug-In . SVG Version: 6.00 Build 0)  -->
<!DOCTYPE svg PUBLIC "-//W3C//DTD SVG 1.1//EN" "http://www.w3.org/Graphics/SVG/1.1/DTD/svg11.dtd">
<svg version="1.1" id="Ebene_1" xmlns="http://www.w3.org/2000/svg" xmlns:xlink="http://www.w3.org/1999/xlink" x="0px" y="0px"
	 width="732.961px" height="208.967px" viewBox="0 0 732.961 208.967" enable-background="new 0 0 732.961 208.967"
	 xml:space="preserve">
<g>
	<g>
		<line fill="none" stroke="#009B77" stroke-width="5" stroke-miterlimit="10" x1="86.604" y1="107.35" x2="158.322" y2="160.043"/>
		<circle fill="none" stroke="#009B77" stroke-width="2" stroke-miterlimit="10" cx="95.237" cy="103.188" r="84.926"/>
		<line fill="none" stroke="#009B77" stroke-width="2" stroke-miterlimit="10" x1="41.978" y1="37.038" x2="170.302" y2="63.443"/>
		<line fill="none" stroke="#009B77" stroke-width="5" stroke-miterlimit="10" x1="21.032" y1="143.336" x2="143.568" y2="33.353"/>
		<line fill="none" stroke="#009B77" stroke-width="5" stroke-miterlimit="10" x1="18.15" y1="67.516" x2="178.992" y2="103.188"/>
		<line fill="none" stroke="#009B77" stroke-width="5" stroke-miterlimit="10" x1="21.032" y1="143.336" x2="137.7" y2="176.748"/>
		<line fill="none" stroke="#009B77" stroke-width="2" stroke-miterlimit="10" x1="158.322" y1="160.043" x2="57.966" y2="26.86"/>
		<line fill="none" stroke="#009B77" stroke-width="2" stroke-miterlimit="10" x1="10.311" y1="103.188" x2="137.7" y2="176.748"/>
		<line fill="none" stroke="#009B77" stroke-width="2" stroke-miterlimit="10" x1="137.7" y1="176.748" x2="95.237" y2="18.261"/>
		<line fill="none" stroke="#009B77" stroke-width="2" stroke-miterlimit="10" x1="175.238" y1="74.622" x2="41.281" y2="168.771"/>
		<line fill="none" stroke="#009B77" stroke-width="2" stroke-miterlimit="10" x1="42.735" y1="168.014" x2="157.535" y2="46.29"/>
		<line fill="none" stroke="#009B77" stroke-width="2" stroke-miterlimit="10" x1="38.518" y1="39.983" x2="32.718" y2="157.725"/>
		<line fill="none" stroke="#009B77" stroke-width="2" stroke-miterlimit="10" x1="38.518" y1="39.983" x2="95.237" y2="188.111"/>
		<line fill="none" stroke="#009B77" stroke-width="2" stroke-miterlimit="10" x1="10.311" y1="93.451" x2="173.815" y2="74.622"/>
		<line fill="none" stroke="#009B77" stroke-width="2" stroke-miterlimit="10" x1="10.311" y1="93.451" x2="171.806" y2="139.967"/>
		
			<line fill="none" stroke="#009B77" stroke-width="2" stroke-miterlimit="10" x1="180.163" y1="103.188" x2="32.718" y2="157.725"/>
	</g>
	<g>
		<path fill="#009B77" stroke="#009B77" stroke-width="10" stroke-miterlimit="10" d="M95.237,85.335"/>
		<path fill="#009B77" stroke="#009B77" stroke-width="10" stroke-miterlimit="10" d="M95.237,85.335"/>
		<path fill="#009B77" stroke="#009B77" stroke-width="10" stroke-miterlimit="10" d="M95.237,85.335"/>
		<path fill="#009B77" stroke="#009B77" stroke-width="10" stroke-miterlimit="10" d="M-0.184,99.801"/>
		<circle fill="#009B77" stroke="#009B77" stroke-width="3" stroke-miterlimit="10" cx="38.518" cy="40.853" r="2.775"/>
		<circle fill="#009B77" stroke="#009B77" stroke-width="3" stroke-miterlimit="10" cx="41.979" cy="170.068" r="2.135"/>
		<circle fill="#009B77" stroke="#009B77" stroke-width="3" stroke-miterlimit="10" cx="31.295" cy="159.561" r="2.135"/>
		<circle fill="#009B77" stroke="#009B77" stroke-width="3" stroke-miterlimit="10" cx="38.518" cy="41.28" r="2.135"/>
		<circle fill="#009B77" stroke="#009B77" stroke-width="3" stroke-miterlimit="10" cx="171.807" cy="141.264" r="2.775"/>
		<circle fill="#009B77" stroke="#009B77" stroke-width="3" stroke-miterlimit="10" cx="175.238" cy="75.917" r="2.775"/>
		<circle fill="#009B77" stroke="#009B77" stroke-width="3" stroke-miterlimit="10" cx="170.302" cy="64.74" r="2.775"/>
		<circle fill="#009B77" stroke="#009B77" stroke-width="3" stroke-miterlimit="10" cx="158.322" cy="47.586" r="2.775"/>
		<circle fill="#009B77" stroke="#009B77" stroke-width="3" stroke-miterlimit="10" cx="95.238" cy="19.557" r="2.775"/>
		<circle fill="#009B77" stroke="#009B77" stroke-width="3" stroke-miterlimit="10" cx="57.967" cy="28.157" r="2.775"/>
		<circle fill="#009B77" stroke="#009B77" stroke-width="3" stroke-miterlimit="10" cx="35.618" cy="92.898" r="2.775"/>
		<circle fill="#009B77" stroke="#009B77" stroke-width="3" stroke-miterlimit="10" cx="124.765" cy="81.311" r="2.775"/>
		<circle fill="#009B77" stroke="#009B77" stroke-width="3" stroke-miterlimit="10" cx="104.29" cy="51.537" r="2.775"/>
		<circle fill="#009B77" stroke="#009B77" stroke-width="3" stroke-miterlimit="10" cx="10.312" cy="104.484" r="2.775"/>
		<circle fill="#009B77" stroke="#009B77" stroke-width="3" stroke-miterlimit="10" cx="10.312" cy="94.748" r="2.775"/>
		
			<ellipse fill="#009B77" stroke="#009B77" stroke-width="3" stroke-miterlimit="10" cx="135.032" cy="131.146" rx="2.705" ry="2.773"/>
		<circle fill="#009B77" stroke="#009B77" stroke-width="3" stroke-miterlimit="10" cx="65.028" cy="111.314" r="2.775"/>
		<circle fill="#009B77" stroke="#009B77" stroke-width="3" stroke-miterlimit="10" cx="112.631" cy="83.162" r="2.775"/>
		<circle fill="#009B77" stroke="#009B77" stroke-width="3" stroke-miterlimit="10" cx="69.374" cy="43.886" r="2.775"/>
		<circle fill="#009B77" stroke="#009B77" stroke-width="3" stroke-miterlimit="10" cx="121.121" cy="113.162" r="2.775"/>
		<circle fill="#009B77" stroke="#009B77" stroke-width="3" stroke-miterlimit="10" cx="57.351" cy="89.641" r="2.775"/>
		<circle fill="#009B77" stroke="#009B77" stroke-width="3" stroke-miterlimit="10" cx="146.324" cy="59.85" r="2.775"/>
		
			<ellipse fill="#009B77" stroke="#009B77" stroke-width="3" stroke-miterlimit="10" cx="95.237" cy="189.408" rx="2.705" ry="2.775"/>
		<circle fill="#009B77" stroke="#009B77" stroke-width="3" stroke-miterlimit="10" cx="86.604" cy="108.645" r="4.803"/>
		<circle fill="#009B77" stroke="#009B77" stroke-width="3" stroke-miterlimit="10" cx="178.992" cy="104.482" r="2.668"/>
		<circle fill="#009B77" stroke="#009B77" stroke-width="3" stroke-miterlimit="10" cx="18.15" cy="68.813" r="4.803"/>
		<circle fill="#009B77" stroke="#009B77" stroke-width="3" stroke-miterlimit="10" cx="137.7" cy="178.4" r="4.803"/>
		<circle fill="#009B77" stroke="#009B77" stroke-width="3" stroke-miterlimit="10" cx="143.925" cy="34.649" r="4.803"/>
		<circle fill="#009B77" stroke="#009B77" stroke-width="3" stroke-miterlimit="10" cx="145.348" cy="97.133" r="4.803"/>
		<circle fill="#009B77" stroke="#009B77" stroke-width="3" stroke-miterlimit="10" cx="180.163" cy="104.484" r="3.202"/>
		<circle fill="#009B77" stroke="#009B77" stroke-width="3" stroke-miterlimit="10" cx="20.818" cy="145.354" r="4.803"/>
		<circle fill="#009B77" stroke="#009B77" stroke-width="3" stroke-miterlimit="10" cx="78.204" cy="143.113" r="4.803"/>
		<circle fill="#009B77" stroke="#009B77" stroke-width="3" stroke-miterlimit="10" cx="158.322" cy="161.338" r="4.803"/>
		<circle fill="#009B77" stroke="#009B77" stroke-width="3" stroke-miterlimit="10" cx="86.604" cy="83.98" r="4.803"/>
		<path fill="#009B77" stroke="#009B77" stroke-width="3" stroke-miterlimit="10" d="M89.808,162.648
			c0-2.652-2.15-4.801-4.803-4.801s-4.803,2.148-4.803,4.801c0,2.654,2.15,4.803,4.803,4.803S89.808,165.303,89.808,162.648z"/>
	</g>
</g>
<g>
	<rect x="217.747" y="64.925" fill="none" width="515.214" height="132.446"/>
	<path fill="#009B77" d="M268.665,146.352h-40.82V69.33h39.102v8.164h-30.078v25.62h27.822v8.111h-27.822v26.963h31.797V146.352z"/>
	<path fill="#009B77" d="M309.485,72.66c-1.719-0.967-3.671-1.45-5.854-1.45c-6.159,0-9.238,3.886-9.238,11.655v8.487h12.891v7.52
		h-12.891v47.48h-8.755v-47.48h-9.399v-7.52h9.399v-8.917c0-5.765,1.665-10.321,4.995-13.669c3.33-3.348,7.483-5.022,12.461-5.022
		c2.686,0,4.815,0.322,6.392,0.967V72.66z"/>
	<path fill="#009B77" d="M343.914,72.66c-1.719-0.967-3.671-1.45-5.854-1.45c-6.159,0-9.238,3.886-9.238,11.655v8.487h12.891v7.52
		h-12.891v47.48h-8.755v-47.48h-9.399v-7.52h9.399v-8.917c0-5.765,1.665-10.321,4.995-13.669c3.33-3.348,7.483-5.022,12.461-5.022
		c2.686,0,4.815,0.322,6.392,0.967V72.66z"/>
	<path fill="#009B77" d="M355.677,77.386c-1.576,0-2.919-0.537-4.028-1.611c-1.11-1.074-1.665-2.435-1.665-4.082
		c0-1.646,0.555-3.016,1.665-4.109c1.109-1.092,2.452-1.638,4.028-1.638c1.611,0,2.98,0.546,4.109,1.638
		c1.127,1.093,1.691,2.462,1.691,4.109c0,1.576-0.564,2.919-1.691,4.028C358.657,76.832,357.288,77.386,355.677,77.386z
		 M359.974,146.352h-8.809v-55h8.809V146.352z"/>
	<path fill="#009B77" d="M415.296,143.826c-4.226,2.543-9.238,3.814-15.039,3.814c-7.842,0-14.172-2.552-18.986-7.654
		c-4.816-5.103-7.225-11.717-7.225-19.846c0-9.059,2.596-16.337,7.788-21.834c5.191-5.496,12.12-8.245,20.786-8.245
		c4.834,0,9.095,0.895,12.783,2.686v9.023c-4.082-2.865-8.451-4.297-13.105-4.297c-5.622,0-10.232,2.014-13.83,6.042
		c-3.6,4.028-5.398,9.319-5.398,15.872c0,6.445,1.691,11.529,5.076,15.254c3.383,3.725,7.922,5.586,13.615,5.586
		c4.798,0,9.31-1.594,13.535-4.781V143.826z"/>
	<path fill="#009B77" d="M474.271,146.352h-8.809v-31.689c0-11.459-4.262-17.188-12.783-17.188c-4.297,0-7.914,1.656-10.85,4.968
		c-2.937,3.313-4.404,7.565-4.404,12.757v31.152h-8.809V64.925h8.809v35.557h0.215c4.225-6.947,10.24-10.42,18.047-10.42
		c12.389,0,18.584,7.465,18.584,22.397V146.352z"/>
	<path fill="#009B77" d="M530.237,146.352h-8.809v-8.594h-0.215c-3.832,6.588-9.472,9.883-16.919,9.883
		c-5.479,0-9.767-1.451-12.864-4.352s-4.646-6.748-4.646-11.547c0-10.277,6.051-16.256,18.154-17.939l16.489-2.311
		c0-9.346-3.778-14.018-11.333-14.018c-6.625,0-12.604,2.256-17.939,6.768v-9.023c5.406-3.438,11.637-5.157,18.691-5.157
		c12.926,0,19.39,6.84,19.39,20.518V146.352z M521.429,118.529l-13.267,1.826c-4.082,0.572-7.162,1.584-9.238,3.034
		c-2.077,1.45-3.115,4.021-3.115,7.708c0,2.686,0.958,4.879,2.874,6.579c1.914,1.701,4.466,2.552,7.653,2.552
		c4.368,0,7.976-1.531,10.823-4.593c2.846-3.062,4.27-6.937,4.27-11.628V118.529z"/>
	<path fill="#009B77" d="M551.346,77.386c-1.576,0-2.919-0.537-4.028-1.611c-1.11-1.074-1.665-2.435-1.665-4.082
		c0-1.646,0.555-3.016,1.665-4.109c1.109-1.092,2.452-1.638,4.028-1.638c1.611,0,2.981,0.546,4.108,1.638
		c1.129,1.093,1.692,2.462,1.692,4.109c0,1.576-0.563,2.919-1.692,4.028C554.327,76.832,552.957,77.386,551.346,77.386z
		 M555.643,146.352h-8.809v-55h8.809V146.352z"/>
	<path fill="#009B77" d="M619.129,146.352h-8.809v-31.367c0-11.674-4.262-17.51-12.783-17.51c-4.404,0-8.048,1.656-10.931,4.968
		c-2.883,3.313-4.323,7.493-4.323,12.542v31.367h-8.809v-55h8.809v9.131h0.215c4.153-6.947,10.169-10.42,18.047-10.42
		c6.016,0,10.616,1.943,13.804,5.828c3.187,3.886,4.78,9.499,4.78,16.839V146.352z"/>
	<path fill="#009B77" d="M673.216,143.826c-4.226,2.543-9.238,3.814-15.039,3.814c-7.842,0-14.172-2.552-18.986-7.654
		c-4.816-5.103-7.225-11.717-7.225-19.846c0-9.059,2.596-16.337,7.788-21.834c5.191-5.496,12.12-8.245,20.786-8.245
		c4.834,0,9.095,0.895,12.783,2.686v9.023c-4.082-2.865-8.451-4.297-13.105-4.297c-5.622,0-10.232,2.014-13.83,6.042
		c-3.6,4.028-5.398,9.319-5.398,15.872c0,6.445,1.691,11.529,5.076,15.254c3.383,3.725,7.922,5.586,13.615,5.586
		c4.798,0,9.31-1.594,13.535-4.781V143.826z"/>
	<path fill="#009B77" d="M730.311,91.352l-25.298,63.809c-4.512,11.387-10.85,17.08-19.014,17.08c-2.292,0-4.208-0.234-5.747-0.699
		v-7.895c1.897,0.645,3.634,0.967,5.21,0.967c4.439,0,7.77-2.65,9.99-7.949l4.404-10.42l-21.484-54.893h9.775l14.878,42.324
		c0.179,0.537,0.555,1.934,1.128,4.189h0.322c0.179-0.859,0.537-2.221,1.074-4.082l15.63-42.432H730.311z"/>
</g>
<g>
</g>
<g>
</g>
<g>
</g>
<g>
</g>
<g>
</g>
<g>
</g>
</svg>
